<?xml version="1.0" standalone="no"?>
<!DOCTYPE svg PUBLIC "-//W3C//DTD SVG 20010904//EN"
 "http://www.w3.org/TR/2001/REC-SVG-20010904/DTD/svg10.dtd">
<svg version="1.0" xmlns="http://www.w3.org/2000/svg"
 width="1024.000000pt" height="1024.000000pt" viewBox="0 0 1024.000000 1024.000000"
 preserveAspectRatio="xMidYMid meet">
<metadata>
Created by potrace 1.14, written by Peter Selinger 2001-2017
</metadata>
<g transform="translate(0.000000,1024.000000) scale(0.100000,-0.100000)"
fill="#000000" stroke="none">
<path d="M5082 8415 c-12 -9 -150 -144 -307 -302 -222 -222 -285 -291 -285
-310 0 -14 29 -114 64 -222 36 -108 99 -301 140 -429 42 -127 86 -253 98 -278
39 -85 143 -170 233 -192 48 -11 182 -7 212 7 82 38 100 49 133 81 77 74 73
63 260 640 62 189 115 361 117 380 5 35 1 40 -281 322 -158 158 -296 294 -309
303 -27 19 -47 19 -75 0z"/>
<path d="M2644 7416 l-25 -21 0 -418 c0 -348 2 -422 14 -440 8 -13 128 -80
278 -156 145 -74 327 -167 405 -207 176 -90 221 -106 309 -106 138 0 269 81
326 201 26 55 30 71 36 143 10 103 11 101 -344 798 -52 102 -105 195 -118 206
-23 22 -28 22 -440 22 -411 0 -417 -1 -441 -22z"/>
<path d="M6720 7419 c-19 -7 -43 -44 -103 -162 -44 -83 -83 -159 -87 -167 -5
-8 -27 -51 -49 -96 -22 -44 -83 -165 -135 -267 -74 -147 -96 -200 -103 -250
-16 -115 21 -228 104 -311 57 -58 120 -91 199 -104 117 -20 146 -10 471 154
481 245 558 286 576 306 16 19 17 55 17 438 0 396 -1 419 -19 441 l-19 24
-414 1 c-227 1 -424 -3 -438 -7z"/>
<path d="M2234 5560 c-23 -9 -579 -561 -594 -590 -25 -48 -17 -58 288 -361
163 -163 305 -299 314 -302 10 -4 71 11 135 32 65 22 253 83 418 136 165 53
329 108 363 122 217 89 295 365 156 555 -66 92 -98 108 -469 229 -484 158
-580 189 -585 188 -3 0 -14 -4 -26 -9z"/>
<path d="M7850 5530 c-63 -21 -268 -88 -455 -149 -370 -121 -403 -137 -469
-229 -107 -146 -90 -351 40 -478 69 -68 25 -52 912 -340 57 -18 111 -30 120
-27 9 3 151 139 315 302 264 263 297 299 297 327 0 29 -33 65 -299 331 -211
211 -306 299 -322 300 -13 1 -76 -16 -139 -37z"/>
<path d="M5196 5083 c-119 -42 -210 -98 -299 -183 -149 -141 -233 -320 -272
-580 -20 -131 -11 -430 20 -640 3 -25 9 -61 11 -80 35 -236 123 -589 304
-1215 136 -471 192 -711 204 -880 7 -83 20 -114 60 -140 31 -21 84 -11 116 21
21 20 25 34 26 85 1 63 -15 194 -35 289 -6 30 -13 64 -15 75 -16 82 -262 970
-315 1140 -11 33 -87 345 -95 385 -2 14 -11 59 -20 100 -13 63 -30 163 -51
300 -20 131 -26 411 -12 525 34 269 148 458 340 564 28 16 75 36 103 45 63 20
94 52 101 103 4 34 1 43 -28 71 -37 36 -75 40 -143 15z"/>
<path d="M3547 3808 c-21 -4 -102 -40 -180 -79 -411 -206 -694 -354 -714 -372
l-23 -20 0 -421 c0 -397 2 -422 19 -446 l19 -24 426 0 c411 0 427 0 445 19 17
18 121 219 367 705 92 183 107 240 88 342 -20 103 -68 179 -154 240 -77 55
-196 78 -293 56z"/>
<path d="M6499 3801 c-178 -56 -287 -235 -253 -416 7 -41 41 -120 104 -245
223 -444 333 -656 351 -675 18 -18 36 -19 426 -20 225 -1 420 3 436 8 15 5 32
17 37 27 6 11 10 183 10 438 l0 419 -22 20 c-13 11 -189 105 -393 208 -203
103 -375 191 -380 196 -6 4 -35 17 -65 29 -73 29 -177 34 -251 11z"/>
</g>
</svg>
